:SAMPLES-PER-SECOND 30
:FRAME-RANGE 1-2775
:FULLY-SPECIFIED
:DEGREES
954
root  62.0137 39.9663 -7.76914 6.71313 -1.09227 0.709946
RightUpLeg  -2.64242 -5.83316 -4.6217
RightLeg  11.7988 -5.61016 -1.49013
RightFoot  -10.2938 -0.172232 11.1324
RightToes  -5.28216e-011 1.2921e-014 -6.02303e-014
Spine  9.79395 1.9883 2.57832
Spine1  -0.269632 3.44173 -6.39576
HEad  -7.80887 3.46218 -0.924073
LeftShoulder1  1.95746 -1.66824 -31.8138
LeftArm  -4.67291 -18.4974 -42.6902
LeftForeArm  -14.9405 -52.6945 -15.9298
LeftHand  -0.757296 11.882 -11.8156
RightShoulder  16.5197 25.0617 50.452
RightArm  -4.1291 16.0932 20.868
RightForeArm  -29.2219 49.9303 15.2239
RightHand  0.309245 -1.17317 8.77093
LeftUpLeg  -15.2164 5.1562 -1.64696
LeftLeg  10.6642 -10.284 -3.83211
LeftFoot  0.574373 -0.171287 1.60819
LeftToes  -2.158e-010 -1.26819e-010 -1.05346e-011
955
root  61.9839 39.9755 -7.76008 7.33531 -0.62619 0.684891
RightUpLeg  -3.0357 -6.11121 -4.51836
RightLeg  11.4335 -5.799 -1.32588
RightFoot  -10.1761 -0.18241 11.085
RightToes  -5.28216e-011 1.2921e-014 -6.02303e-014
Spine  9.75663 2.05928 2.65041
Spine1  -0.573923 3.47311 -6.28236
HEad  -9.85054 3.46105 -1.00618
LeftShoulder1  1.87688 -1.48424 -31.5915
LeftArm  -6.18489 -15.8832 -43.6378
LeftForeArm  -9.23378 -58.8948 -19.8778
LeftHand  -0.778165 12.2167 -11.5528
RightShoulder  15.5938 23.4385 50.5307
RightArm  -6.94798 14.823 20.489
RightForeArm  -24.9852 55.4654 18.3655
RightHand  0.278874 -1.55154 8.79215
LeftUpLeg  -15.7897 4.41964 -1.62041
LeftLeg  10.384 -10.1155 -3.62309
LeftFoot  0.779298 -0.166481 1.53182
LeftToes  -2.158e-010 -1.26819e-010 -1.05346e-011
956
root  61.9366 40.001 -7.73116 7.62161 -0.0149841 0.563293
RightUpLeg  -2.73644 -6.29592 -4.32909
RightLeg  10.5305 -6.27358 -1.06621
RightFoot  -9.90296 -0.20567 10.9753
RightToes  -5.28216e-011 1.2921e-014 -6.02303e-014
Spine  9.81182 2.0275 2.67271
Spine1  -0.725354 3.37484 -5.98131
HEad  -11.4413 3.53524 -0.969271
LeftShoulder1  1.83395 -1.35566 -31.7025
LeftArm  -6.8291 -13.3933 -43.682
LeftForeArm  -3.00506 -62.6763 -22.9621
LeftHand  -0.674084 10.9526 -12.2063
RightShoulder  15.0383 22.2726 50.9559
RightArm  -8.68395 13.125 19.5581
RightForeArm  -19.3923 60.1875 21.8588
RightHand  0.372923 -0.929839 9.91171
LeftUpLeg  -15.9098 4.01647 -1.43314
LeftLeg  9.98943 -10.2896 -3.55831
LeftFoot  0.98589 -0.163294 1.46194
LeftToes  -2.158e-010 -1.26819e-010 -1.05346e-011
957
root  61.8894 40.0172 -7.72842 7.64404 0.279648 0.592438
RightUpLeg  -2.39318 -6.29797 -4.27614
RightLeg  9.91252 -6.67009 -0.94614
RightFoot  -9.75548 -0.218155 10.9266
RightToes  -5.28216e-011 1.2921e-014 -6.02303e-014
Spine  9.74208 2.12172 2.87943
Spine1  -0.870372 3.49728 -6.10441
HEad  -11.6616 3.44218 -1.0949
LeftShoulder1  1.77039 -1.20873 -31.5279
LeftArm  -4.96995 -13.7831 -43.6429
LeftForeArm  -2.99731 -59.8938 -20.1935
LeftHand  -0.402806 8.54255 -12.3177
RightShoulder  14.4578 21.3711 50.783
RightArm  -7.70149 12.853 19.5429
RightForeArm  -17.0226 60.3623 21.8489
RightHand  0.53349 0.417017 10.6408
LeftUpLeg  -15.7538 3.77065 -1.35031
LeftLeg  9.60265 -10.3996 -3.52817
LeftFoot  1.1507 -0.158704 1.37015
LeftToes  -2.158e-010 -1.26819e-010 -1.05346e-011
958
root  61.8345 40.0264 -7.73353 7.30594 0.591232 0.625626
RightUpLeg  -1.76951 -6.27132 -4.2296
RightLeg  9.50005 -7.0685 -0.900368
RightFoot  -9.74029 -0.215326 10.6308
RightToes  -5.28216e-011 1.2921e-014 -6.02303e-014
Spine  9.34953 2.21372 3.01404
Spine1  -0.843334 3.58101 -6.04038
HEad  -9.97444 3.45811 -1.23046
LeftShoulder1  1.82762 -1.38771 -31.3243
LeftArm  -1.25709 -16.5906 -43.4832
LeftForeArm  -5.71475 -52.0507 -14.9102
LeftHand  -0.240418 7.29781 -11.2127
RightShoulder  14.6708 22.0257 50.2003
RightArm  -5.06163 13.4897 19.278
RightForeArm  -18.9394 55.2287 17.8244
RightHand  0.661892 1.7878 10.5378
LeftUpLeg  -15.2837 3.67697 -1.28692
LeftLeg  9.34834 -10.5826 -3.51603
LeftFoot  1.21651 -0.15986 1.38617
LeftToes  -2.158e-010 -1.26819e-010 -1.05346e-011
959
root  61.7744 40.0237 -7.75485 6.63707 0.829025 0.587418
RightUpLeg  -0.886282 -6.2977 -4.14776
RightLeg  9.22971 -7.29694 -0.831002
RightFoot  -9.80138 -0.208084 10.4855
RightToes  -5.28216e-011 1.2921e-014 -6.02303e-014
Spine  9.0539 2.0313 2.82675
Spine1  -0.536587 3.35163 -5.80742
HEad  -7.98393 4.09629 -0.906217
LeftShoulder1  1.9216 -1.65407 -31.2193
LeftArm  0.0164139 -18.3988 -43.1742
LeftForeArm  -14.939 -48.6187 -13.7559
LeftHand  -0.42294 9.17924 -10.7979
RightShoulder  15.3096 23.489 49.5147
RightArm  -1.7216 15.0585 19.658
RightForeArm  -24.8931 48.3402 14.2006
RightHand  0.667482 1.88267 10.48
LeftUpLeg  -14.604 3.85201 -1.16307
LeftLeg  9.37093 -10.909 -3.55407
LeftFoot  1.12207 -0.156378 1.3701
LeftToes  -2.158e-010 -1.26819e-010 -1.05346e-011
960
root  61.7153 40.0134 -7.79897 6.20245 0.574188 0.42543
RightUpLeg  -0.626677 -6.14697 -3.90385
RightLeg  9.43544 -7.266 -0.89502
RightFoot  -9.90551 -0.191138 10.273
RightToes  -5.28216e-011 1.2921e-014 -6.02303e-014
Spine  9.23525 1.88353 2.35265
Spine1  -0.40779 3.10127 -5.37092
HEad  -7.95407 4.94725 -0.564186
LeftShoulder1  1.90057 -1.63923 -30.9155
LeftArm  0.00910724 -16.4035 -43.5521
LeftForeArm  -11.2057 -52.3646 -15.4826
LeftHand  -0.558183 10.4303 -10.9826
RightShoulder  15.7353 24.5754 48.8918
RightArm  -0.152145 15.8706 20.111
RightForeArm  -27.2471 47.2943 13.821
RightHand  0.372722 -0.0785942 8.19491
LeftUpLeg  -14.3279 4.48792 -0.893623
LeftLeg  9.69648 -11.1782 -3.71834
LeftFoot  0.881048 -0.146059 1.3146
LeftToes  -2.158e-010 -1.26819e-010 -1.05346e-011
961
root  61.672 39.9948 -7.86884 6.47084 -0.429169 0.173706
RightUpLeg  -1.66481 -5.83905 -3.56945
RightLeg  10.3346 -6.46236 -1.03278
RightFoot  -10.0061 -0.187659 10.2282
RightToes  -5.28216e-011 1.2921e-014 -6.02303e-014
Spine  9.54312 2.28514 2.84615
Spine1  -0.725054 3.67575 -6.10136
HEad  -9.62627 4.76235 0.0730629
LeftShoulder1  1.81416 -1.39999 -30.9537
LeftArm  -2.28057 -14.6686 -44.7185
LeftForeArm  -7.83126 -56.9761 -18.2391
LeftHand  -0.585406 10.8114 -10.7373
RightShoulder  15.513 24.1131 49.0205
RightArm  -2.56867 15.3037 19.7988
RightForeArm  -26.0024 50.7678 15.5107
RightHand  0.295524 -0.962991 7.95508
LeftUpLeg  -14.8954 5.28862 -0.57019
LeftLeg  10.2103 -11.0188 -3.83388
LeftFoot  0.650415 -0.137673 1.27352
LeftToes  -2.158e-010 -1.26819e-010 -1.05346e-011
962
root  61.6104 39.9952 -7.92528 6.81703 -1.13821 -0.280731
RightUpLeg  -2.59364 -5.65061 -3.05793
RightLeg  10.9862 -5.92394 -0.966708
RightFoot  -9.82519 -0.203123 10.2657
RightToes  -5.28216e-011 1.2921e-014 -6.02303e-014
Spine  9.75026 2.5942 3.45085
Spine1  -1.02324 4.12277 -6.65368
HEad  -11.0796 4.20042 0.889527
LeftShoulder1  1.77954 -1.26973 -31.2386
LeftArm  -3.60406 -12.9759 -45.085
LeftForeArm  -1.67852 -59.115 -19.3957
LeftHand  -0.371647 8.9297 -9.99632
RightShoulder  15.0732 23.0186 49.6256
RightArm  -6.04286 14.1076 19.4364
RightForeArm  -21.9036 54.3821 17.4437
RightHand  0.427122 -0.318816 9.86465
LeftUpLeg  -15.5033 6.43499 -0.0508872
LeftLeg  10.6623 -11.3785 -4.07027
LeftFoot  0.470041 -0.122025 1.15238
LeftToes  -2.158e-010 -1.26819e-010 -1.05346e-011
963
root  61.5046 39.9983 -7.98604 6.88289 -1.64029 -0.814484
RightUpLeg  -3.01093 -5.47111 -2.43718
RightLeg  11.3563 -5.36251 -0.819335
RightFoot  -9.67269 -0.214283 10.1635
RightToes  -5.28216e-011 1.2921e-014 -6.02303e-014
Spine  9.78323 2.59886 3.49441
Spine1  -1.14603 4.09366 -6.50005
HEad  -11.2765 3.71138 1.61829
LeftShoulder1  1.7666 -1.23944 -31.2033
LeftArm  -3.23114 -13.0586 -44.6912
LeftForeArm  -0.0615375 -57.5974 -18.0387
LeftHand  -0.235447 7.77552 -8.74135
RightShoulder  14.8073 22.2179 50.2847
RightArm  -6.41138 14.5352 19.6661
RightForeArm  -19.9608 55.407 18.0145
RightHand  0.515181 0.256573 10.5891
LeftUpLeg  -15.794 7.80684 0.642988
LeftLeg  11.1199 -12.228 -4.4198
LeftFoot  0.231617 -0.0850935 0.826052
LeftToes  -2.158e-010 -1.26819e-010 -1.05346e-011
964
root  61.37 40.0054 -8.09763 6.71509 -2.93927 -1.24614
RightUpLeg  -3.29565 -5.35844 -2.03171
RightLeg  11.6536 -4.109 -0.592532
RightFoot  -9.64235 -0.225119 10.7206
RightToes  -5.28216e-011 1.2921e-014 -6.02303e-014
Spine  9.80142 2.57029 2.88044
Spine1  -1.2881 3.9355 -6.0428
HEad  -9.95701 3.12369 2.64057
LeftShoulder1  1.81044 -1.37247 -31.087
LeftArm  -2.9863 -13.3696 -43.4346
LeftForeArm  -3.57152 -54.8505 -16.4218
LeftHand  -0.240577 7.9433 -8.37208
RightShoulder  15.3476 23.1642 50.2509
RightArm  -4.13109 15.5538 20.4365
RightForeArm  -20.156 53.1366 16.5459
RightHand  0.550327 0.817625 10.2207
LeftUpLeg  -15.6621 8.66767 1.4175
LeftLeg  11.2533 -11.7753 -4.45875
LeftFoot  0.0225059 -0.0433434 0.434372
LeftToes  -2.158e-010 -1.26819e-010 -1.05346e-011
965
root  61.2031 39.9788 -8.22951 6.24603 -4.57999 -1.52957
RightUpLeg  -2.97711 -6.29129 -2.16448
RightLeg  11.5783 -3.52089 -0.208603
RightFoot  -10.7509 -0.148804 14.5591
RightToes  -5.28216e-011 1.2921e-014 -6.02303e-014
Spine  9.90995 2.39706 2.28441
Spine1  -1.14378 3.75653 -6.19071
HEad  -8.41539 1.83646 4.14382
LeftShoulder1  1.84287 -1.45615 -31.1156
LeftArm  -2.43827 -13.2534 -41.7363
LeftForeArm  -5.25789 -53.5866 -15.766
LeftHand  -0.286037 8.74087 -7.78893
RightShoulder  16.1627 24.7286 49.9519
RightArm  -0.451849 17.1984 21.5955
RightForeArm  -21.4199 48.6145 14.1473
RightHand  0.562777 1.40027 9.49446
LeftUpLeg  -15.3693 9.69159 2.16775
LeftLeg  11.8129 -11.1216 -4.57366
LeftFoot  -0.406033 -0.00226488 0.0493004
LeftToes  -2.158e-010 -1.26819e-010 -1.05346e-011
966
root  61.0695 40.001 -8.37816 6.04504 -6.75729 -1.86748
RightUpLeg  -3.2485 -8.45412 -2.55203
RightLeg  12.177 -5.39146 -0.328686
RightFoot  -11.457 -0.0637937 14.1933
RightToes  -5.28216e-011 1.2921e-014 -6.02303e-014
Spine  9.92903 2.4679 2.5622
Spine1  -1.21329 3.93629 -6.68023
HEad  -7.19065 -0.382163 5.32916
LeftShoulder1  1.87316 -1.49068 -31.4678
LeftArm  -2.24332 -13.597 -40.5016
LeftForeArm  -6.21715 -52.3411 -15.1103
LeftHand  -0.252231 9.12718 -5.95433
RightShoulder  16.8687 26.1268 49.637
RightArm  3.17858 18.8164 22.8941
RightForeArm  -24.1965 44.5666 12.4723
RightHand  0.483501 1.34683 8.21429
LeftUpLeg  -14.941 10.7331 2.91966
LeftLeg  11.646 -9.99229 -4.41163
LeftFoot  -0.43268 0.0344162 -0.333162
LeftToes  -2.158e-010 -1.26819e-010 -1.05346e-011
